<?xml version="1.0" standalone="no"?>
<!DOCTYPE svg PUBLIC "-//W3C//DTD SVG 20010904//EN"
 "http://www.w3.org/TR/2001/REC-SVG-20010904/DTD/svg10.dtd">
<svg version="1.0" xmlns="http://www.w3.org/2000/svg"
 width="1054.000000pt" height="1054.000000pt" viewBox="0 0 1054.000000 1054.000000"
 preserveAspectRatio="xMidYMid meet">
<metadata>
Created by potrace 1.11, written by Peter Selinger 2001-2013
</metadata>
<g transform="translate(0.000000,1054.000000) scale(0.100000,-0.100000)"
fill="#000000" stroke="none">
<path d="M8261 9306 c-53 -19 -102 -66 -166 -162 -91 -136 -79 -128 -131 -89
-68 52 -175 76 -250 56 -73 -20 -127 -66 -244 -211 -72 -90 -121 -142 -137
-146 -13 -4 -47 -4 -76 0 -210 26 -320 15 -436 -43 -33 -17 -67 -28 -78 -25
-27 7 -126 -12 -170 -33 -46 -22 -93 -69 -125 -125 -36 -64 -236 -491 -298
-633 -58 -135 -352 -734 -361 -735 -3 0 -27 53 -53 118 -76 182 -180 386 -261
507 -84 127 -205 261 -261 290 -24 13 -57 47 -90 94 -124 175 -213 228 -336
201 -75 -17 -89 -7 -143 99 -26 52 -56 97 -72 109 -73 51 -179 54 -259 7 l-46
-27 -15 24 c-9 12 -51 57 -93 99 -97 95 -188 145 -252 136 -54 -7 -88 -33
-113 -85 -11 -23 -24 -41 -28 -42 -5 0 -29 23 -55 51 -54 59 -93 68 -124 29
-24 -30 -23 -38 17 -137 20 -47 34 -90 33 -95 -2 -6 -44 40 -92 101 -144 180
-295 315 -433 385 -95 48 -200 30 -250 -43 -12 -18 -23 -37 -26 -44 -2 -6 -43
23 -91 66 -152 135 -314 245 -394 266 -74 20 -152 -26 -173 -102 -13 -48 -1
-109 47 -237 54 -144 53 -139 5 -100 -108 89 -235 174 -337 226 -168 86 -237
84 -304 -7 -16 -22 -34 -64 -41 -94 l-12 -53 -48 -4 c-62 -6 -122 -47 -146
-99 -10 -21 -23 -39 -28 -39 -6 0 -51 36 -100 81 -49 45 -112 92 -138 106
-118 60 -252 8 -305 -117 -14 -34 -13 -99 4 -187 l6 -33 -43 0 c-53 0 -112
-26 -161 -69 -86 -75 -102 -190 -45 -321 64 -146 203 -389 408 -712 66 -102
119 -193 119 -201 0 -9 -9 -18 -20 -22 -52 -17 -120 -136 -120 -213 0 -84 62
-264 146 -422 25 -47 59 -128 76 -180 116 -364 318 -757 655 -1273 24 -38 42
-71 40 -73 -2 -3 -40 34 -83 82 -44 47 -176 188 -295 313 -119 124 -267 281
-329 349 -144 157 -154 163 -208 117 l-30 -25 -51 31 c-92 57 -174 59 -263 5
-73 -43 -112 -117 -105 -196 5 -59 49 -157 128 -288 23 -37 43 -70 45 -74 2
-3 -20 -20 -50 -36 -98 -56 -148 -144 -147 -262 0 -87 -6 -78 235 -339 137
-148 810 -795 1161 -1116 185 -169 493 -433 740 -635 110 -90 238 -200 285
-244 373 -353 868 -705 1120 -797 36 -13 130 -62 210 -110 415 -246 659 -368
834 -414 64 -18 70 -22 98 -67 37 -60 90 -95 157 -104 44 -6 53 -11 70 -40 32
-53 75 -74 154 -74 37 0 67 -2 67 -5 0 -3 -11 -31 -24 -63 -40 -94 -97 -274
-103 -323 -12 -100 68 -203 167 -216 40 -6 71 4 176 54 18 8 82 77 154 164 91
110 128 149 144 149 80 0 271 202 751 795 670 828 800 1010 1633 2274 139 211
372 582 504 801 110 183 258 437 258 444 0 3 31 61 69 128 194 349 434 830
631 1263 119 262 166 419 176 591 8 125 0 180 -33 231 -34 53 -74 75 -134 76
-31 1 -49 5 -49 13 0 6 9 54 19 105 48 234 54 443 15 495 -37 51 -70 68 -127
68 -87 0 -113 -22 -256 -208 -24 -32 -45 -55 -47 -53 -3 2 3 64 12 137 11 89
15 187 12 294 -4 188 -13 216 -88 254 -50 25 -135 30 -190 11 -32 -11 -34 -10
-67 29 -42 50 -106 77 -163 68 -48 -8 -49 -6 -19 114 27 109 29 222 5 272 -21
44 -75 95 -122 114 -19 8 -59 14 -90 14 -70 0 -125 -29 -169 -89 -16 -22 -32
-41 -35 -41 -3 0 -16 18 -30 41 -61 100 -189 145 -299 105z m-5555 -638 c145
-147 219 -238 239 -294 36 -95 133 -292 249 -503 105 -189 201 -381 192 -381
-2 0 -61 73 -132 163 -71 89 -153 191 -183 226 -30 36 -76 103 -101 150 -26
47 -73 133 -105 191 -67 121 -275 533 -275 543 0 18 23 -1 116 -95z m-398
-453 c115 -131 234 -276 229 -281 -2 -2 -18 1 -34 7 -23 7 -69 58 -169 186
-77 97 -167 212 -201 255 -35 43 -63 82 -63 86 1 8 117 -115 238 -253z m6788
-301 c-14 -46 -38 -123 -52 -170 -38 -123 -141 -405 -152 -416 -7 -7 -12 1
-17 21 -5 25 10 72 75 238 87 224 130 336 151 396 25 71 21 16 -5 -69z m540
-251 c-3 -10 -17 -64 -31 -120 -50 -202 -95 -309 -171 -413 -89 -120 -153
-220 -289 -445 -119 -198 -208 -331 -213 -317 -1 4 18 57 43 118 49 116 72
173 130 324 20 52 60 136 88 185 56 100 328 537 389 628 38 55 65 75 54 40z
m-5288 -482 c31 -19 1 -50 -153 -156 -182 -126 -501 -367 -889 -674 -147 -116
-275 -211 -286 -211 -35 0 -29 31 24 138 188 375 288 663 259 747 -9 28 -13
30 -59 29 -83 -2 -264 -110 -341 -202 -84 -101 -88 -110 -88 -197 0 -75 -1
-80 -22 -83 -50 -7 -60 125 -17 211 68 134 271 290 432 331 55 15 66 15 97 2
114 -48 67 -305 -130 -709 -26 -54 -45 -100 -43 -103 3 -2 79 53 169 123 378
296 442 345 596 461 187 141 413 300 428 301 6 0 16 -3 23 -8z m2627 -501 l0
-95 -30 0 -30 0 -3 84 c-4 103 0 113 35 109 l28 -3 0 -95z m-1494 -26 c11 -14
8 -26 -25 -86 -21 -38 -36 -71 -34 -73 2 -2 24 9 48 25 51 34 127 54 169 45
41 -9 56 -48 41 -106 -13 -46 -61 -124 -82 -132 -7 -3 -3 -6 9 -6 63 -2 279
113 358 192 62 62 129 76 172 35 65 -61 -20 -178 -130 -178 -46 0 -48 -1 -41
-22 9 -30 7 -29 46 -37 97 -22 317 33 473 118 82 45 91 53 105 93 18 50 53 65
65 27 7 -20 10 -19 54 24 83 80 130 71 152 -30 8 -36 22 -67 37 -81 19 -18 22
-26 12 -37 -36 -43 -95 5 -106 86 -4 30 -12 49 -20 49 -22 0 -123 -132 -208
-272 -18 -30 -53 -37 -62 -13 -3 8 1 35 10 61 11 33 12 44 3 41 -7 -3 -54 -24
-106 -47 -171 -75 -373 -109 -445 -75 -41 20 -65 50 -75 95 l-6 29 -78 -45
c-48 -28 -110 -53 -160 -66 -74 -19 -89 -19 -164 -8 -74 11 -86 15 -108 44
l-26 31 -45 -49 c-25 -27 -59 -77 -76 -110 -17 -34 -34 -63 -38 -66 -4 -3 -32
-52 -62 -110 -204 -389 -211 -404 -197 -408 27 -9 86 -80 92 -111 12 -60 -3
-92 -77 -167 -99 -98 -232 -164 -466 -230 -131 -37 -134 -40 -58 -81 83 -44
107 -75 108 -136 1 -132 -128 -242 -285 -241 -79 0 -144 27 -202 84 -65 64
-29 106 38 45 53 -48 96 -65 160 -65 76 0 126 19 174 66 91 88 62 178 -66 209
-23 6 -27 2 -43 -38 -19 -50 -42 -65 -64 -43 -14 13 -13 20 3 56 10 22 16 43
13 46 -4 3 -41 8 -85 11 -78 6 -103 15 -103 38 0 18 41 32 145 50 50 9 97 18
106 21 15 4 129 148 129 163 0 3 33 39 74 80 49 49 80 72 92 69 33 -6 27 -36
-19 -85 -60 -65 -157 -187 -152 -191 12 -12 318 104 334 126 4 4 25 19 48 34
62 41 112 87 130 121 14 28 14 33 -2 63 -9 17 -28 37 -41 43 -23 10 -26 6 -95
-129 -70 -138 -93 -164 -104 -117 -5 17 12 61 53 148 l60 124 -32 14 c-23 11
-78 15 -206 15 -143 1 -198 -3 -300 -22 -279 -52 -485 -141 -553 -239 -78
-114 -19 -244 150 -330 62 -31 76 -55 45 -72 -16 -8 -32 -4 -82 22 -232 124
-278 319 -111 469 126 114 397 202 704 230 126 11 241 7 402 -14 16 -3 45 47
178 302 86 167 161 307 165 310 8 5 33 48 107 185 138 255 146 265 176 229z
m-1291 -104 c62 -62 -23 -180 -130 -180 -32 0 -40 -3 -40 -19 0 -33 26 -44
105 -43 146 3 255 39 483 157 17 9 32 21 32 26 0 21 66 49 116 49 53 0 74 -12
74 -42 0 -19 -6 -21 -55 -19 -16 1 -43 -2 -60 -7 l-30 -8 65 -43 65 -43 170
42 c197 48 233 52 248 28 18 -28 -1 -37 -124 -63 -162 -33 -271 -67 -276 -85
-29 -100 -158 -210 -245 -210 -71 0 -119 76 -81 128 28 38 89 78 148 98 93 31
93 32 39 68 l-48 33 -81 -43 c-111 -59 -203 -93 -318 -115 -127 -25 -173 -24
-227 4 -36 17 -48 30 -58 61 -23 73 25 180 103 227 40 25 99 25 125 -1z m3081
-20 c37 -21 14 -69 -26 -54 -21 8 -85 -5 -85 -17 0 -5 14 -18 31 -27 17 -9 43
-27 58 -38 19 -16 32 -19 48 -13 22 8 274 70 339 84 21 4 35 1 43 -8 24 -30 1
-46 -97 -67 -54 -12 -140 -34 -192 -49 -90 -26 -95 -29 -104 -60 -5 -18 -30
-56 -55 -84 -99 -109 -194 -138 -252 -76 -67 71 -16 132 179 214 l42 18 -50
34 c-49 33 -68 67 -56 98 16 43 127 71 177 45z m-1843 -853 c3 -17 -154 -225
-220 -290 -39 -39 -250 -360 -299 -454 -46 -90 -73 -175 -64 -202 21 -69 258
6 431 136 40 29 76 53 82 53 6 0 20 13 32 30 37 52 123 57 163 8 14 -16 18
-35 15 -66 l-3 -44 60 5 c34 3 92 20 134 37 40 17 83 29 93 26 11 -2 38 5 60
16 80 42 206 32 260 -19 26 -25 29 -25 46 -10 41 37 72 7 72 -69 0 -39 0 -39
43 -17 97 50 413 117 442 93 27 -22 1 -47 -57 -55 -70 -8 -269 -59 -337 -85
-96 -37 -108 -46 -116 -87 -9 -47 -61 -175 -93 -228 -64 -103 -114 -145 -193
-160 -27 -5 -41 -2 -62 15 -85 67 34 277 233 408 43 29 67 53 72 70 11 38 3
39 -45 5 -77 -55 -210 -114 -289 -128 -85 -16 -155 65 -118 136 12 22 -2 25
-44 9 -14 -5 -65 -15 -113 -21 -80 -11 -91 -15 -122 -47 -35 -35 -102 -71
-133 -72 -26 0 -75 47 -81 79 l-6 29 -113 -58 c-177 -90 -299 -103 -354 -38
-23 29 -26 38 -20 85 11 92 85 241 212 426 30 43 54 81 54 84 0 10 119 169
157 209 21 22 71 79 112 128 72 86 102 103 109 63z m352 -1719 c0 -24 -57
-109 -140 -208 l-63 -75 53 -8 c104 -15 103 -49 0 -38 -36 3 -72 5 -80 3 -8
-2 -46 -40 -85 -83 -67 -77 -70 -82 -70 -132 0 -51 1 -52 32 -55 39 -4 112 32
173 85 53 47 104 60 146 38 34 -17 123 -20 156 -4 13 6 42 35 66 65 24 30 49
54 57 54 20 0 19 -13 -5 -43 -23 -29 -26 -49 -6 -41 23 9 59 -34 52 -62 -7
-28 -9 -27 70 -13 67 12 78 21 141 102 57 74 105 80 52 6 -18 -26 -19 -29 -3
-29 28 0 54 -30 54 -62 0 -28 1 -29 38 -23 70 12 111 26 126 40 8 8 21 15 29
15 8 0 34 9 58 20 48 21 124 27 135 9 3 -6 0 -22 -7 -36 -14 -26 -7 -48 22
-66 22 -14 121 17 159 49 17 15 81 101 141 192 172 257 244 341 282 326 65
-24 5 -120 -236 -378 -56 -60 -104 -113 -106 -118 -2 -5 11 -3 27 6 57 29 92
15 92 -36 0 -15 2 -28 5 -28 36 0 107 26 124 46 11 13 25 24 30 24 5 0 25 33
45 73 50 103 150 250 226 330 66 70 98 91 125 81 60 -24 -61 -221 -257 -418
-104 -104 -108 -110 -108 -151 0 -34 4 -45 19 -50 30 -9 111 30 198 96 97 74
166 97 193 64 29 -35 -12 -76 -100 -98 -60 -16 -72 -30 -39 -47 33 -18 93 -4
181 40 82 42 98 47 98 29 0 -42 -205 -128 -268 -113 -32 8 -62 32 -62 51 0 18
-17 16 -48 -6 -69 -49 -165 -66 -196 -35 -16 15 -20 33 -16 68 1 15 -2 17 -17
11 -10 -4 -46 -15 -80 -24 -54 -14 -67 -22 -89 -54 -48 -71 -144 -93 -144 -33
0 36 35 72 90 92 40 14 50 22 50 41 0 13 -6 23 -13 23 -15 0 -101 -70 -129
-105 -19 -25 -58 -35 -58 -14 0 6 5 20 11 31 10 19 9 20 -12 13 -13 -4 -52 -9
-86 -12 -59 -5 -62 -4 -79 23 -10 16 -19 31 -20 32 -1 2 -25 -14 -53 -36 -80
-64 -141 -66 -141 -5 0 18 -4 24 -14 20 -8 -3 -43 -11 -78 -17 -54 -10 -70
-18 -109 -56 -39 -39 -51 -45 -80 -42 -23 2 -37 10 -45 26 -11 23 -11 22 -40
-15 -51 -67 -150 -222 -213 -335 -32 -57 -44 -67 -56 -48 -13 20 159 310 267
449 10 13 17 26 15 28 -2 1 -29 -2 -61 -8 -49 -9 -64 -17 -101 -55 -38 -41
-47 -45 -81 -42 -37 3 -39 5 -39 36 l0 33 -23 -28 c-40 -48 -167 -244 -211
-325 -46 -84 -65 -106 -76 -88 -13 21 132 268 255 434 46 63 49 75 18 69 -13
-2 -43 0 -68 6 -32 7 -46 7 -49 -1 -2 -6 -19 -28 -38 -49 -41 -45 -87 -54 -98
-19 -6 20 -7 20 -48 -4 -113 -65 -197 -47 -197 43 l0 30 -43 -19 c-24 -11 -69
-22 -99 -26 -62 -7 -68 -10 -84 -39 -6 -11 -22 -26 -37 -33 -35 -17 -76 2 -84
39 l-5 27 -50 -16 c-64 -21 -83 -10 -82 47 0 22 -3 41 -7 41 -5 0 -45 -25 -90
-56 -45 -30 -88 -53 -95 -50 -8 3 -14 19 -14 35 l0 29 -57 -24 c-73 -30 -126
-31 -152 -3 l-19 20 -54 -30 c-109 -62 -171 -31 -130 63 12 25 26 46 32 46 19
0 22 -27 6 -59 -22 -42 -21 -44 19 -38 33 5 89 40 128 79 26 27 35 22 39 -19
3 -35 6 -38 37 -41 36 -4 84 14 164 60 26 15 52 28 57 28 15 0 12 -28 -6 -55
-23 -35 -8 -31 60 15 92 63 142 51 118 -27 l-11 -35 31 6 c16 3 60 21 96 38
56 28 68 38 75 65 8 37 38 57 67 48 27 -9 25 -38 -5 -73 -24 -29 -33 -62 -17
-62 37 0 136 26 178 46 45 23 53 32 78 90 16 36 27 66 25 68 -2 2 -33 0 -68
-5 -69 -10 -77 -8 -68 14 4 10 30 17 85 22 l79 7 62 88 c34 49 89 116 121 150
81 83 150 110 150 58z m-2376 -158 c36 -13 33 -39 -9 -94 -40 -52 -41 -56 -19
-56 12 0 14 -10 12 -52 -2 -39 -7 -53 -18 -53 -11 0 -16 14 -18 53 l-3 54 -42
-39 c-23 -21 -54 -47 -69 -59 -14 -11 -26 -29 -25 -40 2 -15 -5 -19 -28 -20
-16 -1 -68 -22 -115 -47 -125 -66 -213 -89 -340 -91 -117 -1 -165 15 -176 58
-9 36 11 63 67 92 99 50 260 66 442 43 l88 -11 42 29 c59 40 187 169 187 188
0 12 -6 14 -27 9 -29 -7 -106 -46 -133 -67 -30 -24 -60 -70 -60 -93 0 -29 -26
-32 -35 -5 -19 60 68 148 190 192 60 22 57 22 89 9z m381 -330 c0 -63 1 -65
25 -66 32 0 83 20 142 58 44 27 68 30 68 8 0 -17 -86 -68 -152 -91 l-67 -24
-28 21 c-21 15 -29 32 -33 63 l-5 41 -78 -65 c-43 -36 -84 -65 -91 -65 -23 0
-26 27 -9 75 8 25 13 49 9 52 -3 3 -40 -22 -81 -56 -91 -75 -105 -81 -105 -51
0 33 68 150 87 150 11 0 14 -7 11 -25 -3 -14 -4 -25 -2 -25 3 0 23 14 46 30
22 17 49 30 59 30 27 0 41 -33 29 -65 -18 -47 -11 -48 43 -3 118 100 132 101
132 8z m4075 -94 c0 -20 -26 -40 -35 -26 -10 16 2 40 20 40 8 0 15 -6 15 -14z"/>
<path d="M5551 6494 c-54 -23 -131 -86 -131 -107 0 -94 116 -63 180 47 43 75
28 94 -49 60z"/>
<path d="M6021 6484 c-38 -32 -40 -54 -5 -54 28 0 89 54 79 70 -11 18 -42 11
-74 -16z"/>
<path d="M4071 6478 c-36 -37 -39 -48 -11 -48 44 0 90 36 90 71 0 21 -50 7
-79 -23z"/>
<path d="M4710 6276 c-112 -41 -175 -91 -145 -116 25 -20 93 9 146 63 66 67
66 77 -1 53z"/>
<path d="M7133 6259 c-87 -37 -131 -75 -110 -97 24 -23 90 4 147 61 76 76 70
81 -37 36z"/>
<path d="M5443 4914 c-7 -19 5 -42 30 -58 21 -13 26 -7 29 35 3 31 0 34 -25
37 -18 2 -29 -2 -34 -14z"/>
<path d="M5980 4891 c-84 -26 -150 -80 -153 -127 -2 -29 -2 -29 53 -29 56 1
142 32 223 82 33 21 36 26 27 44 -19 35 -88 49 -150 30z"/>
<path d="M5360 4840 c-13 -13 -20 -33 -20 -60 0 -35 3 -40 23 -40 19 0 87 34
87 43 0 3 -16 21 -35 41 l-34 37 -21 -21z"/>
<path d="M6130 4626 c-73 -58 -102 -90 -144 -160 -42 -70 -47 -106 -15 -106
50 0 125 74 174 169 24 48 55 141 47 141 -4 0 -32 -20 -62 -44z"/>
<path d="M5668 3889 c-50 -50 -168 -200 -168 -213 0 -3 6 -6 14 -6 24 0 227
253 213 266 -3 4 -30 -18 -59 -47z"/>
<path d="M7285 3879 c-62 -79 -118 -160 -113 -164 5 -6 140 159 156 191 25 47
6 35 -43 -27z"/>
<path d="M7602 3885 c-84 -92 -226 -305 -204 -305 30 0 272 314 272 353 0 18
-23 2 -68 -48z"/>
<path d="M7645 3483 c-16 -9 -25 -18 -18 -20 6 -2 29 5 50 16 27 14 32 20 18
20 -11 0 -33 -7 -50 -16z"/>
<path d="M6660 3483 c-34 -13 -100 -65 -100 -78 0 -21 10 -19 61 13 75 49 98
87 39 65z"/>
<path d="M5947 3437 c-26 -24 -47 -46 -47 -49 0 -10 114 33 122 45 4 7 8 20 8
30 0 30 -34 19 -83 -26z"/>
<path d="M6257 3430 l-52 -50 65 22 c57 20 65 27 68 51 5 42 -22 34 -81 -23z"/>
<path d="M5657 3430 c-15 -18 -25 -35 -22 -38 9 -9 58 44 53 58 -2 8 -15 0
-31 -20z"/>
<path d="M5047 3373 c-14 -13 -6 -24 15 -21 27 4 36 28 11 28 -11 0 -23 -3
-26 -7z"/>
<path d="M5938 3359 c-19 -10 -24 -29 -9 -29 5 0 19 9 32 20 26 21 9 28 -23 9z"/>
<path d="M6250 3355 c-24 -13 -24 -14 -4 -15 12 0 27 7 34 15 16 19 3 19 -30
0z"/>
<path d="M7023 3345 c-15 -13 -22 -25 -15 -25 17 0 62 30 62 41 0 16 -18 10
-47 -16z"/>
<path d="M2725 3501 c-66 -19 -120 -45 -131 -62 -30 -49 169 -62 306 -20 41
13 101 37 135 54 60 31 60 31 30 38 -63 14 -278 8 -340 -10z"/>
</g>
</svg>
